<svg width="11" height="7" viewBox="0 0 11 7" fill="none" xmlns="http://www.w3.org/2000/svg">
<path d="M7.64062 3.33656L7.64085 3.33651L9.51125 2.93689C9.72396 2.89144 9.9077 2.76581 10.0231 2.59022C10.1382 2.41499 10.176 2.2046 10.1311 2.00522C10.0863 1.80584 9.96162 1.63015 9.78178 1.51795C9.60157 1.40552 9.38074 1.36633 9.16803 1.41177L2.70908 2.79176L2.70889 2.7918C2.55526 2.82454 2.39475 2.81512 2.24508 2.76384L2.35303 2.44346L2.24508 2.76384C2.09541 2.71257 1.96195 2.62124 1.86052 2.4989L1.86065 2.49906L2.15325 2.25913L1.86037 2.49872L7.64062 3.33656ZM7.64062 3.33656C7.51665 3.36312 7.40009 3.41653 7.29954 3.4932C7.19897 3.56988 7.11667 3.66813 7.05928 3.78119L7.05922 3.78133L5.91095 6.0459C5.91093 6.04594 5.91091 6.04598 5.91089 6.04603C5.905 6.05757 5.89612 6.06848 5.88433 6.07746C5.87247 6.0865 5.8583 6.09308 5.84287 6.09637L5.84274 6.0964L4.8931 6.29929C4.87639 6.30278 4.85943 6.30216 4.84388 6.29791L4.74654 6.66356L4.84388 6.29791C4.82829 6.29366 4.81505 6.28604 4.80485 6.27659C4.7947 6.26719 4.78766 6.2561 4.78366 6.2445C4.77969 6.23295 4.77857 6.22047 4.78067 6.20788C4.78068 6.20783 4.78069 6.20779 4.7807 6.20774L4.96937 5.09448C4.96938 5.0944 4.96939 5.09433 4.96941 5.09426C4.99264 4.95742 4.98118 4.81668 4.93576 4.6846C4.89032 4.55247 4.81254 4.43381 4.70991 4.33879C4.60733 4.24381 4.48327 4.17551 4.34902 4.13898L4.25195 4.5047L4.34902 4.13898C4.21481 4.10246 4.07407 4.09866 3.93888 4.12745L3.93865 4.1275L2.14129 4.51151L2.14097 4.51158C2.12075 4.51592 2.10032 4.5142 2.08249 4.50753L1.95157 4.86234L7.64062 3.33656ZM6.07459 1.20892L5.70571 0.899101L5.23708 0.999228L5.60595 1.30905L6.07459 1.20892ZM3.69681 0.680156L3.697 0.680114L3.61336 0.30935L3.69681 0.680156ZM4.15742 1.44153L4.00843 1.26173L3.78108 1.31031L3.86453 1.68111L4.15742 1.44153ZM1.46448 2.10739L1.46468 2.10735L1.38123 1.73654L1.46448 2.10739ZM2.04168 4.4773L1.73639 4.69795L2.04169 4.47732C2.04169 4.47732 2.04168 4.47731 2.04168 4.4773Z" stroke="#B1BBC9" stroke-width="0.76016"/>
</svg>
