<svg width="9" height="9" viewBox="0 0 9 9" fill="none" xmlns="http://www.w3.org/2000/svg">
<path d="M7.14084 6.647C7.18793 6.66516 7.23812 6.67443 7.28875 6.67431C7.36881 6.67438 7.44705 6.651 7.51333 6.60719C7.57962 6.56338 7.63089 6.50116 7.66051 6.42859M7.14084 6.647L6.30937 2.0291C6.41539 2.0291 6.51707 2.07019 6.59204 2.14333C6.667 2.21648 6.70912 2.31568 6.70912 2.41912V4.10013L7.9963 4.37705M7.14084 6.647L7.21708 6.45009C7.19363 6.44101 7.17258 6.42764 7.155 6.41098L7.00975 6.56423L7.155 6.41098C7.13744 6.39433 7.1237 6.37475 7.11432 6.3535C7.10494 6.33226 7.10003 6.30962 7.09971 6.28684C7.09939 6.26406 7.10367 6.24132 7.11244 6.21988L7.11256 6.21958L7.56028 5.11971L7.65508 4.8868L7.40928 4.8337L4.75497 4.26036L4.49924 4.20512V4.46676V6.31938C4.49924 6.36512 4.48066 6.41007 4.44585 6.44404C4.41086 6.47818 4.36232 6.49825 4.31064 6.49825C4.25897 6.49825 4.21043 6.47818 4.17544 6.44404L4.02798 6.59517L4.17544 6.44404C4.14063 6.41007 4.12205 6.36512 4.12205 6.31938V4.46676V4.20512L3.86632 4.26036L1.212 4.8337L0.966203 4.8868L1.06101 5.11971L1.50873 6.21958L1.50878 6.2197C1.52636 6.26282 1.52569 6.31073 1.50683 6.35344C1.48789 6.39634 1.45149 6.43173 1.40403 6.45016L1.48044 6.647L1.40403 6.45016C1.35644 6.46863 1.30303 6.46788 1.25606 6.44815C1.20932 6.4285 1.17408 6.39229 1.15639 6.34908C1.15636 6.34901 1.15633 6.34893 1.1563 6.34886L0.537003 4.81682C0.536995 4.8168 0.536987 4.81679 0.53698 4.81677M7.14084 6.647L7.21682 6.44999C7.23943 6.45871 7.26368 6.46321 7.28825 6.46315L7.28895 6.46315C7.32788 6.46319 7.3655 6.45179 7.3969 6.43103C7.42823 6.41033 7.45165 6.3815 7.46498 6.34888C7.46499 6.34885 7.46501 6.34882 7.46502 6.34879M7.66051 6.42859L8.28012 4.90359C8.30139 4.85084 8.31062 4.79421 8.30717 4.73763C8.30371 4.68105 8.28766 4.62588 8.26013 4.57597C8.23342 4.52624 8.19602 4.48272 8.15049 4.44839C8.10495 4.41406 8.05236 4.38973 7.9963 4.37705M7.66051 6.42859L7.46502 6.34879M7.66051 6.42859L0.53698 4.81677M7.9963 4.37705L7.94974 4.58301C7.95003 4.58308 7.95032 4.58314 7.95061 4.58321M7.9963 4.37705L7.95189 4.58349L7.95061 4.58321M7.95061 4.58321C7.97738 4.58939 8.00216 4.60101 8.02337 4.617C8.04479 4.63315 8.06199 4.65332 8.07411 4.67588L8.0741 4.67589L8.07524 4.67795C8.08773 4.7006 8.09487 4.72534 8.0964 4.75048C8.09793 4.77556 8.09387 4.80077 8.08436 4.82444M7.95061 4.58321L6.66471 4.30657L6.49796 4.27069V4.10013V2.41912C6.49796 2.37338 6.47939 2.32844 6.44458 2.29447C6.40959 2.26033 6.36105 2.24025 6.30937 2.24025H5.50988H5.29873V2.0291V0.85902C5.29873 0.813281 5.28015 0.768333 5.24534 0.734366C5.21035 0.700226 5.16181 0.68015 5.11014 0.68015H3.51115C3.45948 0.68015 3.41094 0.700226 3.37595 0.734366C3.34114 0.768333 3.32256 0.813281 3.32256 0.85902V2.0291V2.24025H3.11141H2.31191C2.26024 2.24025 2.2117 2.26033 2.17671 2.29447C2.1419 2.32844 2.12332 2.37338 2.12332 2.41912V4.10013V4.27171L1.95538 4.30682L0.670191 4.57552M8.08436 4.82444L0.671551 4.57521C0.671097 4.57531 0.670643 4.57542 0.670191 4.57552M8.08436 4.82444L8.0845 4.82411L8.28009 4.90357L8.08429 4.82462M8.08436 4.82444L8.08429 4.82462M0.670191 4.57552C0.643611 4.58173 0.619 4.5933 0.597919 4.60919C0.576495 4.62535 0.559295 4.64552 0.547174 4.66808L0.54606 4.67016L0.546049 4.67015C0.533557 4.6928 0.52642 4.71754 0.524886 4.74268C0.523354 4.7678 0.527429 4.79305 0.53698 4.81677M0.670191 4.57552L0.53698 4.81677M7.46502 6.34879L8.08429 4.82462M7.46502 6.34879L8.08429 4.82462M7.85293 7.41101L7.85292 7.41095C7.72926 7.44792 7.61096 7.49988 7.50079 7.56554L7.49735 7.56759L7.49733 7.56755C7.3379 7.65852 7.15694 7.70626 6.97295 7.70626C6.78955 7.70626 6.60915 7.65882 6.45009 7.56842C6.20488 7.43374 5.92785 7.3628 5.6458 7.3628C5.36324 7.3628 5.08573 7.43399 4.84019 7.56914L7.85293 7.41101ZM7.85293 7.41101L7.85779 7.40943M7.85293 7.41101L7.85779 7.40943M7.85779 7.40943C7.88318 7.40116 7.91019 7.39812 7.93703 7.40057C7.96387 7.40303 7.98967 7.41091 8.01278 7.42349C8.03588 7.43607 8.05564 7.45299 8.07103 7.47291C8.08641 7.4928 8.09713 7.51529 8.10281 7.53887L8.10276 7.53888L8.10397 7.54345C8.11003 7.56636 8.11123 7.59016 8.10753 7.61346C8.10384 7.63676 8.09529 7.65936 8.08215 7.67984C8.069 7.70033 8.05147 7.71836 8.03038 7.73261C8.00928 7.74686 7.98515 7.75695 7.95941 7.76203L7.95933 7.76161L7.94633 7.76505C7.84688 7.79134 7.7518 7.83186 7.66421 7.88538C7.44938 8.01 7.20366 8.076 6.95296 8.076C6.7015 8.076 6.45504 8.0096 6.23974 7.88423L6.2398 7.88412L6.23356 7.88076C6.04593 7.77978 5.83549 7.72698 5.62181 7.72698C5.40814 7.72698 5.19769 7.77978 5.01006 7.88076L5.01005 7.88074L5.00726 7.8823C4.78814 8.00454 4.53973 8.06903 4.28666 8.06903C4.03359 8.06903 3.78518 8.00454 3.56606 7.8823L3.56607 7.88228L3.56326 7.88076C3.37563 7.77978 3.16518 7.72698 2.95151 7.72698C2.73783 7.72698 2.52739 7.77978 2.33976 7.88076L2.33974 7.88072L2.33573 7.88299C2.11531 8.00789 1.86458 8.0739 1.609 8.07396C1.36516 8.0724 1.12632 8.00843 0.916367 7.88882C0.830016 7.83616 0.736417 7.79613 0.638527 7.76989C0.590705 7.75519 0.552094 7.72337 0.529652 7.68284C0.506979 7.6419 0.50203 7.59451 0.515318 7.55052L0.515732 7.55065L0.518806 7.53749C0.524406 7.51351 0.535223 7.49063 0.550845 7.47042C0.566481 7.45019 0.586625 7.43305 0.610185 7.42041C0.633757 7.40777 0.660067 7.40002 0.687367 7.39787C0.714666 7.39572 0.742053 7.39925 0.767649 7.40813L0.767584 7.40832L0.776368 7.41095C0.900027 7.44792 1.01833 7.49988 1.12849 7.56554L1.12847 7.56557M7.85779 7.40943L1.12847 7.56557M1.12847 7.56557L1.13196 7.56755M1.12847 7.56557L1.13196 7.56755M1.13196 7.56755C1.29138 7.65852 1.47235 7.70626 1.65633 7.70626C1.83964 7.70626 2.01995 7.65887 2.17895 7.56855C2.42447 7.43451 2.70149 7.36395 2.98349 7.36395C3.26585 7.36395 3.54321 7.43469 3.78896 7.56907L1.13196 7.56755ZM3.9109 1.03789H3.69974V1.24905V2.0291V2.24025H3.9109H4.71039H4.92155V2.0291V1.24905V1.03789H4.71039H3.9109ZM2.71166 2.59799H2.50051V2.80915V3.92462V4.18779L2.75742 4.13076L4.24585 3.80036H4.37543L5.86387 4.13076L6.12078 4.18779V3.92462V2.80915V2.59799H5.90963H2.71166Z" stroke="#B1BBC9" stroke-width="0.422311"/>
</svg>
