<svg width="7" height="6" viewBox="0 0 7 6" fill="none" xmlns="http://www.w3.org/2000/svg">
<path fill-rule="evenodd" clip-rule="evenodd" d="M5.09375 0.810381C4.3813 0.810381 3.80375 1.38793 3.80375 2.10038C3.80375 2.81283 4.3813 3.39038 5.09375 3.39038C5.8062 3.39038 6.38375 2.81283 6.38375 2.10038C6.38375 1.38793 5.8062 0.810381 5.09375 0.810381ZM3.38375 2.10038C3.38375 1.15597 4.14934 0.390381 5.09375 0.390381C6.03816 0.390381 6.80375 1.15597 6.80375 2.10038C6.80375 3.04479 6.03816 3.81038 5.09375 3.81038C4.14934 3.81038 3.38375 3.04479 3.38375 2.10038ZM3.37379 1.02516L3.25313 0.956614H3.2525L3.25188 0.956313C3.16819 0.909163 3.07301 0.884316 2.97609 0.884316C2.87918 0.884316 2.784 0.909163 2.70031 0.956313L0.273126 2.32232C0.188439 2.36965 0.120001 2.43718 0.073126 2.51617L0.070001 2.5219L0.068751 2.52341C0.024376 2.60089 2.54976e-07 2.68952 2.54976e-07 2.78117V4.29912C-9.23627e-05 4.39198 0.0250484 4.48325 0.0729166 4.56381C0.120785 4.64437 0.189708 4.71142 0.272814 4.75828L1.74688 5.58795H1.74719C1.83139 5.6351 1.92702 5.65993 2.02438 5.65993C2.12173 5.65993 2.21736 5.6351 2.30156 5.58795L2.30219 5.58765L4.725 4.22466C4.74412 4.21393 4.7625 4.20214 4.78004 4.18936C4.56063 4.16623 4.35178 4.10761 4.15936 4.01936L4.14063 4.0299V4.01065C3.96974 3.93012 3.8121 3.82611 3.67188 3.70277V4.2937L3.19656 4.56111V3.21802L3.25202 3.18699C3.17689 3.05476 3.11641 2.91312 3.07276 2.76429L2.06625 3.32745C2.05349 3.33463 2.03899 3.33841 2.02422 3.33841C2.00945 3.33841 1.99495 3.33463 1.98219 3.32745L0.695938 2.60752L2.93656 1.34673C2.94851 1.34 2.9621 1.33646 2.97594 1.33646C2.98977 1.33646 3.00336 1.34 3.01531 1.34673L3.14907 1.42268C3.20888 1.28111 3.28453 1.14787 3.37379 1.02516ZM2.72813 3.48L2.30156 3.71877H2.30188C2.28804 3.7265 2.27386 3.73364 2.25938 3.74018V5.0884L2.72813 4.8246V3.48ZM1.79031 5.089L0.509063 4.36756C0.484376 4.35369 0.468751 4.32776 0.468751 4.29912V3.00336L1.74719 3.71877C1.76123 3.72662 1.77562 3.73386 1.79031 3.74048V5.089ZM5.23011 1.28227C5.23011 1.20695 5.16906 1.1459 5.09375 1.1459C5.01844 1.1459 4.95739 1.20695 4.95739 1.28227V2.10045C4.95739 2.17576 5.01844 2.23681 5.09375 2.23681H5.77557C5.85088 2.23681 5.91193 2.17576 5.91193 2.10045C5.91193 2.02514 5.85088 1.96408 5.77557 1.96408H5.23011V1.28227Z" fill="#D49E12"/>
</svg>
