<svg width="7" height="6" viewBox="0 0 7 6" fill="none" xmlns="http://www.w3.org/2000/svg">
<path fill-rule="evenodd" clip-rule="evenodd" d="M5.09375 0.42C4.3813 0.42 3.80375 0.997553 3.80375 1.71C3.80375 2.42245 4.3813 3 5.09375 3C5.8062 3 6.38375 2.42245 6.38375 1.71C6.38375 0.997553 5.8062 0.42 5.09375 0.42ZM3.38375 1.71C3.38375 0.765593 4.14934 0 5.09375 0C6.03816 0 6.80375 0.765593 6.80375 1.71C6.80375 2.65441 6.03816 3.42 5.09375 3.42C4.14934 3.42 3.38375 2.65441 3.38375 1.71ZM3.37379 0.634782L3.25313 0.566234H3.2525L3.25188 0.565932C3.16819 0.518782 3.07301 0.493936 2.97609 0.493936C2.87918 0.493936 2.784 0.518782 2.70031 0.565932L0.273126 1.93194C0.188439 1.97927 0.120001 2.0468 0.073126 2.12579L0.070001 2.13152L0.068751 2.13302C0.024376 2.21051 2.54976e-07 2.29914 2.54976e-07 2.39079V3.90874C-9.23627e-05 4.0016 0.0250484 4.09286 0.0729166 4.17343C0.120785 4.25399 0.189708 4.32104 0.272814 4.3679L1.74688 5.19757H1.74719C1.83139 5.24472 1.92702 5.26955 2.02438 5.26955C2.12173 5.26955 2.21736 5.24472 2.30156 5.19757L2.30219 5.19727L4.725 3.83428C4.74412 3.82355 4.7625 3.81175 4.78004 3.79898C4.56063 3.77585 4.35178 3.71723 4.15936 3.62898L4.14063 3.63952V3.62027C3.96974 3.53974 3.8121 3.43573 3.67188 3.31239V3.90332L3.19656 4.17073V2.82764L3.25202 2.79661C3.17689 2.66438 3.11641 2.52274 3.07276 2.37391L2.06625 2.93707C2.05349 2.94425 2.03899 2.94803 2.02422 2.94803C2.00945 2.94803 1.99495 2.94425 1.98219 2.93707L0.695938 2.21714L2.93656 0.956349C2.94851 0.949621 2.9621 0.946076 2.97594 0.946076C2.98977 0.946076 3.00336 0.949621 3.01531 0.956349L3.14907 1.0323C3.20888 0.890729 3.28453 0.757485 3.37379 0.634782ZM2.72813 3.08962L2.30156 3.32839H2.30188C2.28804 3.33612 2.27386 3.34326 2.25938 3.3498V4.69802L2.72813 4.43422V3.08962ZM1.79031 4.69862L0.509063 3.97718C0.484376 3.96331 0.468751 3.93738 0.468751 3.90874V2.61298L1.74719 3.32839C1.76123 3.33624 1.77562 3.34348 1.79031 3.3501V4.69862ZM5.23011 0.891885C5.23011 0.816573 5.16906 0.755521 5.09375 0.755521C5.01844 0.755521 4.95739 0.816573 4.95739 0.891885V1.71007C4.95739 1.78538 5.01844 1.84643 5.09375 1.84643H5.77557C5.85088 1.84643 5.91193 1.78538 5.91193 1.71007C5.91193 1.63476 5.85088 1.5737 5.77557 1.5737H5.23011V0.891885Z" fill="#EC2617"/>
</svg>
