<svg width="3" height="5" viewBox="0 0 3 5" fill="none" xmlns="http://www.w3.org/2000/svg">
<path fill-rule="evenodd" clip-rule="evenodd" d="M1.36518 1.3001C1.69655 1.3001 1.96518 1.03147 1.96518 0.700098C1.96518 0.368727 1.69655 0.100098 1.36518 0.100098C1.03381 0.100098 0.765179 0.368727 0.765179 0.700098C0.765179 1.03147 1.03381 1.3001 1.36518 1.3001ZM1.37463 1.55827C1.00337 1.64061 0.392365 1.92604 0.296875 2.57124C0.30912 2.71433 0.558505 2.86587 0.68932 2.57124C0.765561 2.39952 0.886235 2.32789 1.02545 2.298V4.42023C1.02545 4.68532 1.24035 4.90023 1.50545 4.90023L1.51954 4.90002V4.90005L1.51977 4.90002C1.57759 4.89832 1.63285 4.8864 1.6838 4.866C2.05738 4.76629 2.60675 4.47782 2.69688 3.86885C2.68463 3.72576 2.43525 3.57422 2.30443 3.86885C2.23134 4.03347 2.1174 4.10612 1.98545 4.13817V2.02023C1.98545 1.75513 1.77054 1.54023 1.50545 1.54023C1.49495 1.54023 1.48454 1.54056 1.47421 1.54123L1.47421 1.54004L1.45623 1.54272C1.42825 1.54557 1.40098 1.55082 1.37463 1.55827Z" fill="#718096"/>
</svg>
