<svg width="10" height="8" viewBox="0 0 10 8" fill="none" xmlns="http://www.w3.org/2000/svg">
<path d="M6.57239 2.83505H6.19231V3.21513H6.57239V2.83505ZM1.19753 6.30693H1.57761V5.92685H1.19753V6.30693ZM3.50104 6.30693V5.92685H3.12096V6.30693H3.50104ZM5.80455 6.30693H6.18463V5.92685H5.80455V6.30693ZM8.10807 6.30693V5.92685H7.72799V6.30693H8.10807ZM8.72234 4.17366L9.02797 3.9477L9.02704 3.94647L8.72234 4.17366ZM7.83932 2.98936L8.14404 2.76216L8.14246 2.76008L7.83932 2.98936ZM7.2684 3.85201L7.57029 3.6211C7.50887 3.54079 7.41799 3.48827 7.31774 3.47515L7.2684 3.85201ZM7.63939 4.33705L7.64959 4.71699C7.79231 4.71316 7.92085 4.62967 7.98237 4.50083C8.0439 4.37199 8.02803 4.21954 7.94129 4.10613L7.63939 4.33705ZM6.57239 4.33705H6.19231C6.19231 4.54484 6.35918 4.71411 6.56696 4.71709L6.57239 4.33705ZM6.57239 3.76089L6.62173 3.38402C6.51325 3.36982 6.40391 3.40305 6.32169 3.47522C6.23946 3.54738 6.19231 3.65148 6.19231 3.76089H6.57239ZM7.2684 4.347L7.26296 4.72704L7.27078 4.72715L7.27859 4.72694L7.2684 4.347ZM7.53219 2.45497H6.57239V3.21513H7.53219V2.45497ZM6.95247 2.83505V2.06352H6.19231V2.83505H6.95247ZM6.95247 2.06352C6.95247 1.43099 6.43849 0.911912 5.80455 0.911912V1.67207C6.01524 1.67207 6.19231 1.84737 6.19231 2.06352H6.95247ZM5.80455 0.911912H1.19753V1.67207H5.80455V0.911912ZM1.19753 0.911912C0.563586 0.911912 0.0496077 1.43099 0.0496077 2.06352H0.809767C0.809767 1.84737 0.986843 1.67207 1.19753 1.67207V0.911912ZM0.0496077 2.06352V5.5354H0.809767V2.06352H0.0496077ZM0.0496077 5.5354C0.0496077 6.16794 0.563586 6.68701 1.19753 6.68701V5.92685C0.986843 5.92685 0.809767 5.75155 0.809767 5.5354H0.0496077ZM0.817446 6.30693C0.817446 7.15549 1.50035 7.84431 2.34928 7.84431V7.08415C1.92361 7.08415 1.57761 6.73911 1.57761 6.30693H0.817446ZM2.34928 7.84431C3.19822 7.84431 3.88112 7.15549 3.88112 6.30693H3.12096C3.12096 6.73911 2.77496 7.08415 2.34928 7.08415V7.84431ZM3.50104 6.68701H5.80455V5.92685H3.50104V6.68701ZM5.42447 6.30693C5.42447 7.15549 6.10738 7.84431 6.95631 7.84431V7.08415C6.53063 7.08415 6.18463 6.73911 6.18463 6.30693H5.42447ZM6.95631 7.84431C7.80524 7.84431 8.48815 7.15549 8.48815 6.30693H7.72799C7.72799 6.73911 7.38199 7.08415 6.95631 7.08415V7.84431ZM8.10807 6.68701H8.49199V5.92685H8.10807V6.68701ZM8.49199 6.68701C8.91477 6.68701 9.25599 6.34153 9.25599 5.92117H8.49583C8.49583 5.92222 8.49568 5.9226 8.49554 5.92294C8.49528 5.92354 8.49471 5.92451 8.49373 5.9255C8.49274 5.92649 8.49197 5.92688 8.49183 5.92693C8.4918 5.92695 8.49189 5.92691 8.49206 5.92687C8.49226 5.92683 8.49228 5.92685 8.49199 5.92685V6.68701ZM9.25599 5.92117V4.63657H8.49583V5.92117H9.25599ZM9.25599 4.63657C9.25599 4.38828 9.1755 4.14727 9.02796 3.9477L8.41671 4.39961C8.46881 4.47008 8.49583 4.5531 8.49583 4.63657H9.25599ZM9.02704 3.94647L8.14403 2.76217L7.53462 3.21655L8.41763 4.40084L9.02704 3.94647ZM8.14246 2.76008C7.99903 2.57044 7.77252 2.45497 7.53219 2.45497V3.21513C7.53017 3.21513 7.53049 3.2147 7.5324 3.21567C7.53431 3.21662 7.53562 3.21789 7.53619 3.21864L8.14246 2.76008ZM6.96651 4.08292L7.3375 4.56796L7.94129 4.10613L7.57029 3.6211L6.96651 4.08292ZM6.95247 4.33705V3.76089H6.19231V4.33705H6.95247ZM6.52305 4.13775L7.21906 4.22887L7.31774 3.47515L6.62173 3.38402L6.52305 4.13775ZM7.6292 3.9571L7.2582 3.96706L7.27859 4.72694L7.64959 4.71699L7.6292 3.9571ZM7.27384 3.96696L6.57783 3.957L6.56696 4.71709L7.26296 4.72704L7.27384 3.96696Z" fill="#B1BBC9"/>
</svg>
